<svg xmlns="http://www.w3.org/2000/svg" width="512" height="512" viewBox="0 0 497 497" style="enable-background:new 0 0 512 512" xml:space="preserve"><path fill="#003049" d="M425 48v439c0 5.52-4.48 10-10 10H82c-5.52 0-10-4.48-10-10V48c0-5.52 4.48-10 10-10h333c5.52 0 10 4.48 10 10z" data-original="#fad207"/><path fill="#669bbc" d="M88 87.349v386.57A7.08 7.08 0 0 0 95.081 481h201.777c2.652 0 5.196-1.054 7.071-2.929L381 401V82H107.926l-1.686-12.171-13.79 9.202A9.998 9.998 0 0 0 88 87.349z" data-original="#faa515"/><path fill="#fdf0d5" d="M395 78v309l-60 22-20 58H112c-5.523 0-10-4.477-10-10V78c0-5.523 4.477-10 10-10h273c5.523 0 10 4.477 10 10z" data-original="#f5f5f5"/><path fill="#669bbc" d="m395 387-80 80v-70c0-5.523 4.477-10 10-10zM349.14 68v19.43c0 13.78-11.22 25-25 25H172.86c-13.78 0-25-11.22-25-25V68z" data-original="#e6e6e6"/><path fill="#669bbc" d="M147.86 38h201.28v30H147.86z" data-original="#faa515"/><path fill="#003049" d="M334.138 37.979v49.447c0 5.523-4.477 10-10 10H172.862c-5.523 0-10-4.477-10-10V37.979l55.507.001a31.282 31.282 0 0 1-.669-9.991c1.382-14.945 13.632-26.88 28.605-27.913 18.078-1.247 33.13 13.049 33.13 30.86a31.02 31.02 0 0 1-.806 7.044z" data-original="#50758d"/><path fill="#198754" d="M171.891 198.096a7.497 7.497 0 0 1-5.198-2.094l-25.337-24.362c-2.986-2.871-3.079-7.619-.208-10.604s7.62-3.078 10.604-.208l19.689 18.933 30.877-35.051a7.5 7.5 0 0 1 11.256 9.916l-36.056 40.929a7.498 7.498 0 0 1-5.627 2.541z" data-original="#5ed297"/><path fill="#003049" d="M344 177.631H238c-4.143 0-7.5-3.357-7.5-7.5s3.357-7.5 7.5-7.5h106c4.143 0 7.5 3.357 7.5 7.5s-3.357 7.5-7.5 7.5z" data-original="#50758d"/><path fill="#198754" d="M171.891 286.327a7.497 7.497 0 0 1-5.198-2.094l-25.337-24.362a7.5 7.5 0 0 1-.208-10.604 7.5 7.5 0 0 1 10.604-.208l19.701 18.943 30.929-34.971a7.5 7.5 0 0 1 10.587-.649 7.5 7.5 0 0 1 .649 10.587l-36.109 40.827a7.504 7.504 0 0 1-5.618 2.531z" data-original="#5ed297"/><path d="M344 265.5H238c-4.143 0-7.5-3.357-7.5-7.5s3.357-7.5 7.5-7.5h106c4.143 0 7.5 3.357 7.5 7.5s-3.357 7.5-7.5 7.5zm0 91.131h-17.5c-4.143 0-7.5-3.357-7.5-7.5s3.357-7.5 7.5-7.5H344c4.143 0 7.5 3.357 7.5 7.5s-3.357 7.5-7.5 7.5zm-52.5 0H238c-4.143 0-7.5-3.357-7.5-7.5s3.357-7.5 7.5-7.5h53.5c4.143 0 7.5 3.357 7.5 7.5s-3.357 7.5-7.5 7.5z" fill="#003049" data-original="#50758d"/><path fill="#dc3545" d="M199 379.631h-46a7.499 7.499 0 0 1-7.5-7.5v-46c0-4.143 3.357-7.5 7.5-7.5h46c4.143 0 7.5 3.357 7.5 7.5v46a7.5 7.5 0 0 1-7.5 7.5zm-38.5-15h31v-31h-31z" data-original="#fd646f"/></svg>